# xmcd CD database file
#
# Track frame offsets:
#	150
#	22217
#	45487
#	68269
#	87068
#	109378
#	132328
#	153570
#	176181
#	196506
#	218392
#	242063
#
# Disc length: 3570 seconds
#
# Revision: 9
# Processed by: cddbd v1.4PL0 Copyright (c) Steve Scherf et al.
# Submitted via: CDex 1.50
#
DISCID=990df00c
DTITLE=I WiSH - tsutaetai kotoba ~namida no ochiru basho~
DYEAR=2003
DGENRE=Jazz
TTITLE0=asu heno tobira
TTITLE1=Summer Breeze ni notte (Sweet Palau Mix)
TTITLE2=sayonara no ame
TTITLE3=kaze ni nare!
TTITLE4=futatsu hoshi
TTITLE5=UTS-kono sora no shita de
TTITLE6=December
TTITLE7=Flower 2
TTITLE8=ClassMate ijou ...
TTITLE9=kira kira
TTITLE10=hikari ga sasu mirai he
TTITLE11=I
EXTD=YEAR: 2003
EXTT0=
EXTT1=
EXTT2=
EXTT3=
EXTT4=
EXTT5=
EXTT6=
EXTT7=
EXTT8=
EXTT9=
EXTT10=
EXTT11=
PLAYORDER=
